<?xml version="1.0" encoding="utf-8"?>
<!-- Generator: Adobe Illustrator 27.0.0, SVG Export Plug-In . SVG Version: 6.00 Build 0)  -->
<svg version="1.1" xmlns="http://www.w3.org/2000/svg" xmlns:xlink="http://www.w3.org/1999/xlink" x="0px" y="0px"
	 viewBox="0 0 750 500" style="enable-background:new 0 0 750 500;" xml:space="preserve">
<style type="text/css">
	.st0{fill:#263238;}
	.st1{fill:#92E3A9;}
	.st2{fill:none;stroke:#263238;stroke-miterlimit:10;}
	.st3{fill:none;stroke:#263238;stroke-linecap:round;stroke-linejoin:round;stroke-miterlimit:10;}
	.st4{fill:#263238;stroke:#263238;stroke-miterlimit:10;}
	.st5{fill:#FFFFFF;stroke:#263238;stroke-miterlimit:10;}
	.st6{fill:#8C8C8C;stroke:#263238;stroke-miterlimit:10;}
	.st7{fill:#B0B0B0;stroke:#263238;stroke-miterlimit:10;}
</style>
<g id="Background_Simple">
</g>
<g id="Floor">
	<ellipse class="st0" cx="381.5" cy="460.6" rx="302.6" ry="8.8"/>
</g>
<g id="Plants">
	<g>
		<g>
			<path class="st1" d="M231,201.4c2.5-1,6.8-5.4,6.8-5.4c0,0-3.7-1.9-4-2c-2.9-1-9.2-1.4-11.3,1.4c-1.5,2-0.8,4.7,1.3,6
				C225.8,202.6,228.8,202.2,231,201.4z"/>
			<path class="st1" d="M244.9,212.4c2.1-1.5,4.9-6.5,5.1-6.9c2.8,1.6,5.7,2.9,8.8,4.2c1.7,0.7,3.5,1.4,5.3,2
				c-0.9-0.2-1.6-0.3-1.7-0.3c-3.1-0.2-9.2,1.1-10.5,4.3c-1,2.3,0.5,4.7,2.8,5.4c2.3,0.7,5.1-0.5,7-1.9c1.9-1.4,4.3-5.6,5-6.7
				c0.7,0.2,1.4,0.5,2.1,0.7c3.3,1.1,6.6,2.2,9.9,3.4c1.1,0.4,2.2,0.9,3.3,1.3c-0.8-0.1-1.4-0.3-1.5-0.3c-3.1-0.2-9.2,1.1-10.5,4.3
				c-1,2.3,0.5,4.7,2.8,5.4c2.3,0.7,5.1-0.5,7-1.9c1.8-1.3,4.1-5.2,4.8-6.5c1.1,0.5,2.2,1,3.3,1.5c0.7,0.4,1.4,0.7,2.1,1.1
				c0.7,0.4,1.4,0.8,2.1,1.2c1.3,0.8,2.6,1.6,3.9,2.4c0.9,0.6,1.7,1.1,2.5,1.7c-1.1-0.4-3.3-1.2-3.5-1.3c-3-0.7-9.3-0.3-11.1,2.7
				c-1.3,2.1-0.2,4.8,2,5.8c2.2,1,5.1,0.2,7.2-0.8c2.3-1.2,5.6-5.5,6-6c1.4,0.9,2.7,1.8,3.9,2.7c1.1,0.8,2.1,1.5,3.1,2.3l1.5-1.5
				c-1.1-0.8-2.3-1.6-3.5-2.4c-1.4-0.9-2.9-1.9-4.4-2.9c0.2-0.4,1.2-2.7,1.8-4.9c2.6,0.1,7.4-1.5,8.1-1.7c0.6,1.5,1.2,3,1.8,4.4
				c0.4,1,0.7,1.9,1.1,2.8l1.6-1.6c-0.3-0.6-0.5-1.3-0.8-1.9c-0.6-1.5-1.3-3.2-2.1-4.9c0.6-0.4,5.1-3.3,6.5-5.5
				c1.2-1.9,2.3-4.8,1.4-7.1c-0.8-2.2-3.4-3.5-5.6-2.4c-3.1,1.5-4.1,7.7-3.6,10.8c0,0.2,0.5,2.1,0.9,3.3c-0.3-0.7-0.6-1.3-0.9-2
				c-0.6-1.4-1.3-2.8-2-4.2c-0.4-0.7-0.7-1.4-1.1-2.1c-0.4-0.7-0.8-1.4-1.3-2.1c-1-1.7-2.1-3.3-3.2-4.9c1.2-0.6,5.5-2.6,7-4.3
				c1.5-1.7,3-4.4,2.5-6.8c-0.5-2.4-2.8-4-5.2-3.3c-3.3,1-5.2,7-5.2,10.1c0,0.2,0.2,2.4,0.4,3.6c-0.7-1-1.4-1.9-2.1-2.9
				c-2.1-2.7-4.3-5.5-6.6-8.2c-0.7-0.8-1.3-1.7-2-2.5c0.4-0.2,5.6-2.5,7.3-4.5c1.5-1.7,3-4.4,2.5-6.8c-0.5-2.3-2.8-4-5.2-3.3
				c-3.3,1-5.2,7-5.2,10.1c0,0.2,0.3,3.4,0.5,4.2c-1.5-1.8-2.9-3.7-4.3-5.6c-1.9-2.6-3.6-5.2-5-7.9c0.2-0.1,5.6-2.5,7.3-4.5
				c1.5-1.7,3-4.4,2.5-6.8c-0.5-2.4-2.8-4-5.2-3.3c-3.3,1-5.2,7-5.2,10.1c0,0.2,0.4,3.7,0.5,4.3c-0.1-0.2-0.2-0.3-0.3-0.5
				c-1.5-2.9-2.6-5.9-3.5-8.7c-0.5-1.7-0.9-3.3-1.3-4.8c1-0.3,5.8-2,7.6-3.6c1.7-1.6,3.5-4,3.2-6.5c-0.2-2.4-2.3-4.3-4.8-3.8
				c-3.4,0.7-5.9,6.4-6.3,9.5c0,0.2,0,1.9,0,3.1c-0.2-0.7-0.3-1.4-0.5-2.1c-0.5-2.6-0.8-5-1.1-7.1c-0.1-1.2-0.2-2.3-0.3-3.3
				c0.9-0.9,4.2-4.4,5.1-6.7c0.8-2.2,1.2-5.2-0.1-7.2c-1.3-2-4-2.7-6-1.2c-2.7,2.2-2.3,8.4-1.2,11.3c0.1,0.3,2,4,2.1,4
				c0,0,0,0,0.1-0.1c0.1,1,0.1,2,0.2,3.2c0.2,2.1,0.5,4.5,0.9,7.1c0.4,2.6,1,5.4,1.8,8.3c0.8,2.9,1.9,5.9,3.4,8.9c0,0,0,0.1,0.1,0.1
				c-0.7-0.7-2.7-2.7-2.9-2.9c-2.4-1.9-8.3-4.2-11.2-2.2c-2.1,1.4-2.2,4.2-0.7,6.1c1.6,1.9,4.6,2.4,6.9,2.3c2.6-0.1,7.6-2.7,8-2.9
				c1.4,2.8,3.1,5.6,5,8.3c1.1,1.6,2.2,3.1,3.3,4.6c-0.6-0.6-1.2-1.2-1.3-1.2c-2.4-1.9-8.3-4.2-11.2-2.2c-2.1,1.4-2.2,4.2-0.7,6.1
				c1.6,1.9,4.6,2.4,6.9,2.3c2.3-0.1,6.7-2.2,7.8-2.8c0.4,0.6,0.9,1.2,1.3,1.7c2.2,2.8,4.3,5.5,6.3,8.3c0.7,1,1.4,2,2.1,2.9
				c-0.6-0.5-1-1-1.1-1.1c-2.4-1.9-8.3-4.2-11.2-2.2c-2.1,1.4-2.2,4.2-0.7,6.1c1.6,1.9,4.6,2.4,6.9,2.3c2.2-0.1,6.3-2,7.6-2.7
				c0.7,1,1.3,2.1,1.9,3.1c0.4,0.7,0.8,1.4,1.2,2.1c0.4,0.7,0.7,1.4,1.1,2.1c0.6,1.4,1.3,2.8,1.9,4.2c0.4,0.9,0.8,1.9,1.2,2.8
				c-0.7-1-2.1-2.9-2.3-3c-1.4-1.5-4.3-3.4-7-4c-0.2-0.2-0.4-0.4-0.7-0.6c-1.9-1.4-4.8-1.1-6,1.1c-1.8,3,0.9,8.7,2.9,11
				c0.1,0.1,1.6,1.5,2.6,2.3c-0.6-0.4-1.2-0.8-1.9-1.2c-1.3-0.8-2.6-1.6-4-2.4c-0.7-0.4-1.4-0.8-2.1-1.1c-0.7-0.4-1.5-0.7-2.2-1.1
				c-1.7-0.8-3.6-1.6-5.4-2.3c0.7-1.1,3.1-5.2,3.5-7.5c0.3-2.3,0.1-5.3-1.7-7c-1.7-1.7-4.5-1.8-6.1,0.1c-2.2,2.7-0.5,8.7,1.2,11.3
				c0.1,0.2,1.5,1.9,2.3,2.8c-1.1-0.4-2.2-0.8-3.4-1.2c-3.3-1.1-6.6-2.2-10-3.2c-1-0.3-2-0.7-3.1-1c0.3-0.4,3.3-5.2,3.6-7.7
				c0.3-2.3,0.1-5.3-1.7-7c-1.7-1.7-4.5-1.8-6.1,0.1c-2.2,2.7-0.5,8.7,1.2,11.3c0.1,0.2,2.2,2.7,2.7,3.3c-2.2-0.7-4.5-1.5-6.6-2.3
				c-3-1.1-5.9-2.4-8.6-3.8c0.1-0.2,3.3-5.1,3.6-7.8c0.3-2.3,0.1-5.3-1.7-7c-1.7-1.7-4.5-1.8-6.1,0.1c-2.2,2.7-0.5,8.7,1.2,11.3
				c0.1,0.2,2.3,2.9,2.8,3.3c-0.2-0.1-0.3-0.2-0.5-0.2c-2.9-1.6-5.4-3.5-7.7-5.3c-1.3-1.1-2.6-2.2-3.7-3.3c0.7-0.9,3.8-4.8,4.4-7.2
				c0.6-2.2,0.7-5.3-0.9-7.2c-1.5-1.9-4.3-2.3-6.1-0.5c-2.5,2.4-1.4,8.6,0,11.4c0.1,0.2,1,1.6,1.7,2.6c-0.5-0.5-1.1-1-1.6-1.5
				c-1.8-1.9-3.4-3.7-4.8-5.3c-0.8-0.9-1.5-1.8-2.1-2.6c0.2-1.2,1.1-6,0.5-8.3c-0.5-2.3-1.8-5-4.1-6c-2.2-1-4.9-0.1-5.7,2.3
				c-1.1,3.3,2.7,8.3,5.2,10.1c0.2,0.2,3.9,2.2,3.9,2.2c0,0,0-0.1,0-0.1c0.6,0.8,1.2,1.6,2,2.5c1.3,1.7,2.9,3.5,4.7,5.4
				c1.8,1.9,3.8,4,6.1,5.9c2.3,2,4.9,3.9,7.7,5.6c0,0,0.1,0,0.1,0.1c-1-0.2-3.8-0.8-4-0.8c-3.1-0.2-9.2,1.1-10.5,4.3
				c-0.9,2.3,0.5,4.7,2.8,5.4C240.3,215,243,213.8,244.9,212.4z"/>
			<path class="st1" d="M275.8,159c0.1,0-2.1-3.7-2.2-3.9c-1.9-2.5-6.9-6.2-10.2-5.1c-2.4,0.8-3.2,3.5-2.2,5.7c1,2.2,3.8,3.5,6,4
				C269.8,160.3,275.7,159,275.8,159z"/>
		</g>
		<g>
			<path class="st1" d="M532.3,206.9c-2.6-0.9-7-5.1-7-5.1c0,0,3.7-2,3.9-2.1c2.9-1.1,9.1-1.7,11.3,1c1.6,1.9,0.9,4.7-1.1,6
				C537.5,208,534.5,207.7,532.3,206.9z"/>
			<path class="st1" d="M518.8,218.5c-2.2-1.5-5.1-6.3-5.3-6.7c-2.7,1.7-5.6,3.1-8.6,4.5c-1.7,0.8-3.5,1.5-5.3,2.2
				c0.9-0.2,1.6-0.4,1.7-0.4c3.1-0.3,9.2,0.8,10.7,4c1,2.3-0.3,4.8-2.6,5.5c-2.3,0.8-5.1-0.4-7-1.7c-1.9-1.3-4.5-5.4-5.2-6.5
				c-0.7,0.3-1.4,0.5-2,0.8c-3.3,1.2-6.6,2.5-9.7,3.7c-1.1,0.5-2.2,0.9-3.3,1.4c0.8-0.2,1.4-0.3,1.5-0.3c3.1-0.3,9.2,0.8,10.7,4
				c1,2.3-0.3,4.8-2.6,5.5c-2.3,0.8-5.1-0.4-7-1.7c-1.8-1.3-4.3-5-5.1-6.3c-1.1,0.5-2.2,1.1-3.2,1.6c-0.7,0.4-1.4,0.7-2.1,1.2
				c-0.7,0.4-1.4,0.8-2,1.3c-1.3,0.8-2.6,1.7-3.8,2.6c-0.9,0.6-1.6,1.2-2.5,1.7c1.1-0.5,3.3-1.3,3.5-1.4c3-0.8,9.2-0.6,11.1,2.3
				c1.4,2.1,0.4,4.8-1.8,5.9c-2.2,1.1-5.1,0.4-7.2-0.6c-2.3-1.1-5.8-5.3-6.2-5.8c-1.3,1-2.6,1.9-3.8,2.8c-1.1,0.8-2.1,1.6-3,2.4
				l-1.6-1.5c1.1-0.8,2.2-1.7,3.4-2.5c1.3-1,2.8-2,4.3-3.1c-0.2-0.4-1.2-2.6-2-4.9c-2.6,0.2-7.5-1.2-8.1-1.4c-0.6,1.5-1.1,3-1.6,4.5
				c-0.3,1-0.7,1.9-1,2.8l-1.7-1.6c0.2-0.6,0.5-1.3,0.7-2c0.6-1.6,1.2-3.2,1.9-4.9c-0.6-0.3-5.2-3.2-6.7-5.3c-1.3-1.9-2.5-4.7-1.7-7
				c0.8-2.3,3.2-3.7,5.5-2.6c3.2,1.4,4.3,7.6,4,10.7c0,0.2-0.5,2.1-0.8,3.4c0.3-0.7,0.6-1.4,0.9-2.1c0.6-1.4,1.2-2.8,1.9-4.3
				c0.3-0.7,0.7-1.4,1.1-2.2c0.3-0.7,0.8-1.5,1.2-2.2c0.9-1.7,2-3.3,3.1-5c-1.2-0.5-5.6-2.4-7.2-4.1c-1.6-1.7-3.1-4.3-2.7-6.7
				c0.4-2.4,2.6-4.1,5.1-3.4c3.3,0.9,5.4,6.8,5.5,9.9c0,0.2-0.1,2.4-0.3,3.6c0.7-1,1.3-2,2-2.9c2-2.8,4.2-5.6,6.3-8.4
				c0.6-0.9,1.3-1.7,1.9-2.6c-0.4-0.2-5.7-2.3-7.4-4.2c-1.6-1.7-3.1-4.3-2.7-6.7c0.4-2.4,2.6-4.1,5.1-3.4c3.3,0.9,5.4,6.8,5.5,9.9
				c0,0.2-0.2,3.4-0.3,4.3c1.4-1.9,2.8-3.8,4.1-5.7c1.8-2.7,3.4-5.4,4.7-8.1c-0.2-0.1-5.7-2.3-7.5-4.2c-1.6-1.7-3.1-4.3-2.7-6.7
				c0.4-2.4,2.6-4.1,5.1-3.4c3.3,0.9,5.4,6.8,5.5,9.9c0,0.2-0.2,3.7-0.3,4.3c0.1-0.2,0.2-0.3,0.3-0.5c1.4-2.9,2.4-6,3.2-8.8
				c0.5-1.7,0.8-3.3,1.1-4.9c-1.1-0.3-5.9-1.8-7.7-3.3c-1.8-1.5-3.6-3.9-3.4-6.3c0.1-2.4,2.2-4.4,4.6-4c3.4,0.6,6.1,6.2,6.6,9.3
				c0,0.2,0.1,1.9,0.1,3.1c0.1-0.7,0.3-1.5,0.4-2.1c0.4-2.6,0.6-5,0.8-7.1c0.1-1.2,0.2-2.3,0.2-3.3c-0.9-0.8-4.4-4.3-5.3-6.5
				c-0.9-2.1-1.4-5.1-0.1-7.2c1.2-2.1,3.9-2.9,6-1.4c2.8,2.1,2.6,8.3,1.6,11.3c-0.1,0.3-1.9,4.1-1.9,4c0,0,0,0-0.1-0.1
				c0,1-0.1,2-0.1,3.2c-0.1,2.1-0.3,4.5-0.7,7.2c-0.4,2.6-0.8,5.4-1.6,8.4c-0.8,2.9-1.7,6-3.1,9c0,0,0,0.1-0.1,0.1
				c0.7-0.8,2.6-2.8,2.8-3c2.4-2,8.1-4.4,11.1-2.6c2.1,1.3,2.3,4.2,0.9,6.1c-1.5,1.9-4.5,2.5-6.8,2.5c-2.6,0-7.7-2.5-8.1-2.7
				c-1.3,2.9-2.9,5.7-4.7,8.5c-1,1.6-2.1,3.2-3.2,4.7c0.6-0.6,1.2-1.2,1.2-1.3c2.4-2,8.1-4.4,11.1-2.6c2.1,1.3,2.3,4.2,0.9,6.1
				c-1.5,1.9-4.5,2.5-6.8,2.5c-2.3,0-6.8-2-7.9-2.6c-0.4,0.6-0.8,1.2-1.3,1.8c-2.1,2.8-4.1,5.7-6.1,8.5c-0.7,1-1.3,2-2,3
				c0.5-0.6,1-1,1.1-1.1c2.4-2,8.1-4.4,11.1-2.6c2.1,1.3,2.3,4.2,0.9,6.1c-1.5,1.9-4.5,2.5-6.8,2.5c-2.2,0-6.3-1.8-7.7-2.5
				c-0.6,1.1-1.3,2.1-1.8,3.1c-0.4,0.7-0.8,1.4-1.1,2.1c-0.3,0.7-0.7,1.5-1,2.2c-0.6,1.4-1.2,2.9-1.7,4.2c-0.4,1-0.7,1.9-1.1,2.8
				c0.7-1,2-2.9,2.2-3.1c1.4-1.5,4.2-3.5,6.8-4.2c0.2-0.2,0.4-0.4,0.7-0.6c1.9-1.5,4.7-1.3,6.1,0.8c1.9,2.9-0.6,8.7-2.6,11.1
				c-0.1,0.1-1.6,1.5-2.5,2.4c0.6-0.4,1.2-0.8,1.9-1.3c1.3-0.9,2.6-1.7,3.9-2.5c0.7-0.4,1.4-0.8,2.1-1.2c0.7-0.4,1.5-0.8,2.2-1.2
				c1.7-0.9,3.5-1.7,5.3-2.5c-0.7-1.1-3.3-5.1-3.7-7.4c-0.4-2.3-0.3-5.3,1.4-7.1c1.6-1.8,4.5-2,6.1-0.1c2.3,2.6,0.8,8.7-0.8,11.3
				c-0.1,0.2-1.5,1.9-2.2,2.9c1.1-0.5,2.2-0.9,3.3-1.3c3.2-1.2,6.6-2.4,9.9-3.5c1-0.4,2-0.7,3-1.1c-0.3-0.4-3.4-5.1-3.9-7.6
				c-0.4-2.3-0.3-5.3,1.4-7.1c1.6-1.8,4.5-2,6.1-0.1c2.3,2.6,0.8,8.7-0.8,11.3c-0.1,0.2-2.1,2.8-2.6,3.4c2.2-0.8,4.4-1.6,6.6-2.5
				c3-1.2,5.8-2.6,8.4-4.1c-0.1-0.2-3.5-5-3.9-7.7c-0.4-2.3-0.3-5.3,1.4-7.1c1.6-1.8,4.5-2,6.1-0.1c2.3,2.6,0.8,8.7-0.8,11.3
				c-0.1,0.2-2.2,3-2.7,3.4c0.2-0.1,0.3-0.2,0.5-0.3c2.8-1.7,5.3-3.6,7.6-5.6c1.3-1.1,2.5-2.3,3.6-3.4c-0.7-0.8-3.9-4.7-4.6-7
				c-0.6-2.2-0.8-5.2,0.6-7.2c1.4-1.9,4.2-2.4,6.1-0.8c2.6,2.3,1.7,8.6,0.4,11.4c-0.1,0.2-1,1.6-1.6,2.7c0.5-0.5,1-1.1,1.5-1.6
				c1.8-1.9,3.3-3.8,4.6-5.5c0.7-1,1.4-1.8,2-2.7c-0.3-1.2-1.3-6-0.8-8.3c0.5-2.3,1.7-5,3.9-6.1c2.2-1,4.9-0.2,5.7,2.1
				c1.2,3.3-2.4,8.4-4.9,10.3c-0.2,0.2-3.8,2.4-3.8,2.3c0,0,0-0.1,0-0.1c-0.6,0.8-1.2,1.7-1.9,2.6c-1.3,1.7-2.8,3.6-4.5,5.6
				c-1.7,2-3.7,4.1-5.9,6.1c-2.2,2-4.7,4.1-7.5,5.8c0,0-0.1,0-0.1,0.1c1-0.3,3.8-0.9,4-0.9c3.1-0.3,9.2,0.8,10.7,4
				c1,2.3-0.3,4.8-2.6,5.5C523.5,220.9,520.7,219.8,518.8,218.5z"/>
			<path class="st1" d="M486.1,166.1c-0.1,0,1.9-3.7,2.1-3.9c1.8-2.5,6.7-6.4,10-5.4c2.4,0.7,3.4,3.4,2.4,5.6
				c-0.9,2.3-3.6,3.6-5.9,4.2C492.1,167.2,486.1,166.1,486.1,166.1z"/>
		</g>
		<g>
			<path class="st1" d="M309.4,148.9c1.3,0,4-1.1,4-1.1c0,0-1.3-1.6-1.4-1.7c-1.1-1-3.8-2.3-5.3-1.5c-1.1,0.6-1.2,2-0.6,2.9
				C306.8,148.5,308.3,148.9,309.4,148.9z"/>
			<path class="st1" d="M313.5,156.5c1.2-0.3,3.4-2,3.6-2.1c0.9,1.2,2,2.4,3.1,3.5c0.6,0.6,1.3,1.3,2,1.9c-0.4-0.2-0.7-0.4-0.7-0.5
				c-1.3-0.7-4.3-1.2-5.5-0.1c-0.9,0.9-0.7,2.2,0.2,3c0.9,0.8,2.4,0.7,3.5,0.5c1.1-0.3,3-1.7,3.5-2c0.3,0.2,0.5,0.5,0.8,0.7
				c1.3,1.1,2.5,2.3,3.8,3.4c0.4,0.4,0.8,0.8,1.2,1.2c-0.3-0.2-0.6-0.4-0.6-0.4c-1.3-0.7-4.3-1.2-5.5-0.1c-0.9,0.9-0.7,2.2,0.2,3
				c0.9,0.8,2.4,0.7,3.5,0.5c1.1-0.3,2.8-1.5,3.4-2c0.4,0.4,0.8,0.9,1.2,1.3c0.2,0.3,0.5,0.6,0.7,0.9c0.2,0.3,0.5,0.6,0.7,0.9
				c0.4,0.6,0.9,1.2,1.3,1.8c0.3,0.4,0.5,0.8,0.8,1.2c-0.4-0.4-1.3-1.2-1.3-1.2c-1.2-0.9-4.1-1.9-5.4-0.9c-1,0.7-1,2.1-0.2,3
				c0.8,0.9,2.2,1.1,3.4,1c1.2-0.1,3.5-1.4,3.8-1.5c0.4,0.7,0.9,1.3,1.2,1.9c0.3,0.6,0.7,1.1,1,1.6l1-0.4c-0.3-0.6-0.7-1.1-1.1-1.7
				c-0.4-0.7-0.9-1.4-1.4-2.1c0.2-0.1,1-1,1.7-1.9c1.1,0.5,3.6,0.7,3.9,0.8c0,0.8,0,1.6,0,2.3c0,0.5,0,1-0.1,1.5l1-0.4
				c0-0.3,0-0.7,0-1c0-0.8,0-1.7,0-2.6c0.3-0.1,2.9-0.5,3.9-1.2c0.9-0.6,1.9-1.7,2-2.9c0.1-1.2-0.8-2.2-2-2.2
				c-1.7,0.1-3.3,2.7-3.7,4.1c0,0.1-0.2,1-0.2,1.6c0-0.4,0-0.7,0-1.1c0-0.7-0.1-1.5-0.1-2.3c0-0.4-0.1-0.8-0.1-1.2
				c0-0.4-0.1-0.8-0.2-1.2c-0.1-0.9-0.3-1.9-0.5-2.8c0.6,0,2.9-0.1,4-0.6c1-0.5,2.2-1.4,2.4-2.6c0.2-1.1-0.5-2.3-1.7-2.4
				c-1.7-0.2-3.6,2.2-4.2,3.5c0,0.1-0.4,1.1-0.5,1.7c-0.1-0.6-0.3-1.1-0.4-1.7c-0.4-1.6-0.9-3.3-1.4-4.9c-0.1-0.5-0.3-1-0.4-1.5
				c0.2,0,3-0.1,4.1-0.6c1-0.5,2.2-1.4,2.4-2.6c0.2-1.1-0.5-2.3-1.7-2.4c-1.7-0.2-3.6,2.2-4.2,3.5c0,0.1-0.5,1.6-0.6,2
				c-0.3-1.1-0.6-2.2-0.9-3.3c-0.3-1.5-0.6-3-0.7-4.5c0.1,0,3-0.1,4.1-0.6c1-0.5,2.2-1.4,2.4-2.6c0.2-1.1-0.5-2.3-1.7-2.4
				c-1.7-0.2-3.6,2.2-4.2,3.5c0,0.1-0.5,1.7-0.6,2c0-0.1,0-0.2,0-0.3c-0.1-1.6-0.1-3.1,0.1-4.6c0.1-0.8,0.2-1.6,0.3-2.4
				c0.5,0,3,0.2,4.1-0.2c1.1-0.4,2.3-1.1,2.7-2.3c0.4-1.1-0.2-2.4-1.4-2.6c-1.6-0.3-3.9,1.7-4.6,3c0,0.1-0.4,0.8-0.6,1.4
				c0.1-0.3,0.1-0.7,0.2-1c0.3-1.2,0.6-2.4,0.9-3.4c0.2-0.6,0.3-1.1,0.5-1.5c0.5-0.2,2.7-1.2,3.5-2c0.8-0.8,1.5-2.1,1.3-3.2
				c-0.2-1.1-1.3-2-2.5-1.7c-1.6,0.5-2.6,3.3-2.7,4.8c0,0.1,0.1,2.2,0.2,2.2c0,0,0,0,0,0c-0.2,0.5-0.3,0.9-0.5,1.5
				c-0.3,1-0.7,2.1-0.9,3.4c-0.3,1.2-0.6,2.6-0.7,4.1c-0.2,1.5-0.3,3-0.2,4.6c0,0,0,0,0,0.1c-0.2-0.5-0.7-1.7-0.8-1.8
				c-0.7-1.3-2.9-3.4-4.6-3.1c-1.2,0.2-1.8,1.5-1.4,2.6c0.3,1.1,1.6,1.9,2.6,2.3c1.2,0.4,3.9,0.2,4.1,0.2c0.1,1.5,0.3,3.1,0.7,4.7
				c0.2,0.9,0.4,1.8,0.6,2.7c-0.2-0.4-0.3-0.7-0.3-0.8c-0.7-1.3-2.9-3.4-4.6-3.1c-1.2,0.2-1.8,1.5-1.4,2.6c0.3,1.1,1.6,1.9,2.6,2.3
				c1.1,0.4,3.4,0.3,4,0.2c0.1,0.3,0.2,0.7,0.3,1c0.4,1.6,0.9,3.3,1.3,4.9c0.1,0.6,0.2,1.1,0.4,1.7c-0.1-0.3-0.3-0.6-0.3-0.7
				c-0.7-1.3-2.9-3.4-4.6-3.1c-1.2,0.2-1.8,1.5-1.4,2.6c0.3,1.1,1.6,1.9,2.6,2.3c1,0.4,3.2,0.3,3.9,0.2c0.1,0.6,0.2,1.2,0.3,1.7
				c0,0.4,0.1,0.8,0.1,1.2c0,0.4,0.1,0.8,0.1,1.2c0,0.7,0,1.5,0.1,2.2c0,0.5,0,1,0,1.5c-0.1-0.6-0.4-1.7-0.4-1.8
				c-0.3-0.9-1.3-2.3-2.4-3.1c-0.1-0.1-0.1-0.3-0.2-0.4c-0.6-1-1.9-1.4-2.9-0.7c-1.4,1-1.3,4-0.8,5.5c0,0.1,0.4,1,0.7,1.5
				c-0.2-0.3-0.4-0.6-0.6-0.9c-0.4-0.6-0.9-1.2-1.3-1.8c-0.2-0.3-0.5-0.6-0.7-0.9c-0.2-0.3-0.5-0.6-0.8-0.9c-0.6-0.7-1.3-1.4-2-2
				c0.5-0.4,2.4-1.7,3-2.7c0.6-1,1-2.4,0.6-3.5c-0.4-1.1-1.7-1.7-2.8-1.1c-1.5,0.8-1.9,3.8-1.6,5.3c0,0.1,0.3,1.1,0.5,1.7
				c-0.4-0.4-0.8-0.8-1.3-1.2c-1.3-1.1-2.6-2.2-3.9-3.3c-0.4-0.3-0.8-0.7-1.2-1c0.2-0.1,2.4-1.7,3.1-2.8c0.6-1,1-2.4,0.6-3.5
				c-0.4-1.1-1.7-1.7-2.8-1.1c-1.5,0.8-1.9,3.8-1.6,5.3c0,0.1,0.5,1.6,0.6,2c-0.9-0.7-1.7-1.5-2.5-2.3c-1.1-1.1-2.2-2.2-3.1-3.3
				c0.1-0.1,2.4-1.7,3.1-2.8c0.6-1,1-2.4,0.6-3.5c-0.4-1.1-1.7-1.7-2.8-1.1c-1.5,0.8-1.9,3.8-1.6,5.3c0,0.1,0.5,1.7,0.6,2
				c-0.1-0.1-0.1-0.1-0.2-0.2c-1-1.2-1.8-2.6-2.4-3.8c-0.4-0.7-0.7-1.5-1-2.2c0.5-0.3,2.6-1.5,3.3-2.4c0.7-0.9,1.3-2.2,1-3.4
				c-0.3-1.1-1.5-1.8-2.6-1.4c-1.6,0.6-2.3,3.6-2.2,5.1c0,0.1,0.2,0.9,0.3,1.5c-0.1-0.3-0.3-0.7-0.4-1c-0.5-1.2-0.8-2.3-1.1-3.3
				c-0.2-0.6-0.3-1.1-0.4-1.6c0.3-0.5,1.6-2.5,1.8-3.6c0.2-1.1,0.1-2.6-0.7-3.4c-0.8-0.8-2.2-0.9-3,0c-1.1,1.3-0.4,4.2,0.4,5.5
				c0.1,0.1,1.3,1.7,1.3,1.7c0,0,0,0,0,0c0.1,0.5,0.2,1,0.4,1.5c0.3,1,0.6,2.1,1.1,3.3c0.4,1.2,1,2.5,1.6,3.8c0.7,1.3,1.4,2.7,2.4,4
				c0,0,0,0,0,0c-0.4-0.3-1.5-1.1-1.6-1.1c-1.3-0.7-4.3-1.2-5.5-0.1c-0.9,0.9-0.7,2.2,0.2,3C310.9,156.8,312.4,156.8,313.5,156.5z"
				/>
			<path class="st1" d="M337.4,138.5c0,0-0.2-2-0.3-2.2c-0.4-1.5-1.9-4.1-3.6-4.2c-1.2-0.1-2.1,1-2.1,2.1c0,1.2,1,2.3,1.9,2.9
				C334.5,137.9,337.4,138.5,337.4,138.5z"/>
		</g>
		<g>
			<path class="st1" d="M449.7,148.9c-1.3,0-4-1.1-4-1.1c0,0,1.3-1.6,1.4-1.7c1.1-1,3.8-2.3,5.3-1.5c1.1,0.6,1.2,2,0.6,2.9
				C452.2,148.5,450.8,148.9,449.7,148.9z"/>
			<path class="st1" d="M445.5,156.5c-1.2-0.3-3.4-2-3.6-2.1c-0.9,1.2-2,2.4-3.1,3.5c-0.6,0.6-1.3,1.3-2,1.9
				c0.4-0.2,0.7-0.4,0.7-0.5c1.3-0.7,4.3-1.2,5.5-0.1c0.9,0.9,0.7,2.2-0.2,3c-0.9,0.8-2.4,0.7-3.5,0.5c-1.1-0.3-3-1.7-3.5-2
				c-0.3,0.2-0.5,0.5-0.8,0.7c-1.3,1.1-2.5,2.3-3.8,3.4c-0.4,0.4-0.8,0.8-1.2,1.2c0.3-0.2,0.6-0.4,0.6-0.4c1.3-0.7,4.3-1.2,5.5-0.1
				c0.9,0.9,0.7,2.2-0.2,3c-0.9,0.8-2.4,0.7-3.5,0.5c-1.1-0.3-2.8-1.5-3.4-2c-0.4,0.4-0.8,0.9-1.2,1.3c-0.2,0.3-0.5,0.6-0.7,0.9
				c-0.2,0.3-0.5,0.6-0.7,0.9c-0.4,0.6-0.9,1.2-1.3,1.8c-0.3,0.4-0.5,0.8-0.8,1.2c0.4-0.4,1.3-1.2,1.3-1.2c1.2-0.9,4.1-1.9,5.4-0.9
				c1,0.7,1,2.1,0.2,3c-0.8,0.9-2.2,1.1-3.4,1c-1.2-0.1-3.5-1.4-3.8-1.5c-0.4,0.7-0.9,1.3-1.2,1.9c-0.3,0.6-0.7,1.1-1,1.6l-1-0.4
				c0.3-0.6,0.7-1.1,1.1-1.7c0.4-0.7,0.9-1.4,1.4-2.1c-0.2-0.1-1-1-1.7-1.9c-1.1,0.5-3.6,0.7-3.9,0.8c0,0.8,0,1.6,0,2.3
				c0,0.5,0,1,0.1,1.5l-1-0.4c0-0.3,0-0.7,0-1c0-0.8,0-1.7,0-2.6c-0.3-0.1-2.9-0.5-3.9-1.2c-0.9-0.6-1.9-1.7-2-2.9
				c-0.1-1.2,0.8-2.2,2-2.2c1.7,0.1,3.3,2.7,3.7,4.1c0,0.1,0.2,1,0.2,1.6c0-0.4,0-0.7,0-1.1c0-0.7,0.1-1.5,0.1-2.3
				c0-0.4,0.1-0.8,0.1-1.2c0-0.4,0.1-0.8,0.2-1.2c0.1-0.9,0.3-1.9,0.5-2.8c-0.6,0-2.9-0.1-4-0.6c-1-0.5-2.2-1.4-2.4-2.6
				c-0.2-1.1,0.5-2.3,1.7-2.4c1.7-0.2,3.6,2.2,4.2,3.5c0,0.1,0.4,1.1,0.5,1.7c0.1-0.6,0.3-1.1,0.4-1.7c0.4-1.6,0.9-3.3,1.4-4.9
				c0.1-0.5,0.3-1,0.4-1.5c-0.2,0-3-0.1-4.1-0.6c-1-0.5-2.2-1.4-2.4-2.6c-0.2-1.1,0.5-2.3,1.7-2.4c1.7-0.2,3.6,2.2,4.2,3.5
				c0,0.1,0.5,1.6,0.6,2c0.3-1.1,0.6-2.2,0.9-3.3c0.3-1.5,0.6-3,0.7-4.5c-0.1,0-3-0.1-4.1-0.6c-1-0.5-2.2-1.4-2.4-2.6
				c-0.2-1.1,0.5-2.3,1.7-2.4c1.7-0.2,3.6,2.2,4.2,3.5c0,0.1,0.5,1.7,0.6,2c0-0.1,0-0.2,0-0.3c0.1-1.6,0.1-3.1-0.1-4.6
				c-0.1-0.8-0.2-1.6-0.3-2.4c-0.5,0-3,0.2-4.1-0.2c-1.1-0.4-2.3-1.1-2.7-2.3c-0.4-1.1,0.2-2.4,1.4-2.6c1.6-0.3,3.9,1.7,4.6,3
				c0,0.1,0.4,0.8,0.6,1.4c-0.1-0.3-0.1-0.7-0.2-1c-0.3-1.2-0.6-2.4-0.9-3.4c-0.2-0.6-0.3-1.1-0.5-1.5c-0.5-0.2-2.7-1.2-3.5-2
				c-0.8-0.8-1.5-2.1-1.3-3.2c0.2-1.1,1.3-2,2.5-1.7c1.6,0.5,2.6,3.3,2.7,4.8c0,0.1-0.1,2.2-0.2,2.2c0,0,0,0,0,0
				c0.2,0.5,0.3,0.9,0.5,1.5c0.3,1,0.7,2.1,0.9,3.4c0.3,1.2,0.6,2.6,0.7,4.1c0.2,1.5,0.3,3,0.2,4.6c0,0,0,0,0,0.1
				c0.2-0.5,0.7-1.7,0.8-1.8c0.7-1.3,2.9-3.4,4.6-3.1c1.2,0.2,1.8,1.5,1.4,2.6c-0.3,1.1-1.6,1.9-2.6,2.3c-1.2,0.4-3.9,0.2-4.1,0.2
				c-0.1,1.5-0.3,3.1-0.7,4.7c-0.2,0.9-0.4,1.8-0.6,2.7c0.2-0.4,0.3-0.7,0.3-0.8c0.7-1.3,2.9-3.4,4.6-3.1c1.2,0.2,1.8,1.5,1.4,2.6
				c-0.3,1.1-1.6,1.9-2.6,2.3c-1.1,0.4-3.4,0.3-4,0.2c-0.1,0.3-0.2,0.7-0.3,1c-0.4,1.6-0.9,3.3-1.3,4.9c-0.1,0.6-0.2,1.1-0.4,1.7
				c0.1-0.3,0.3-0.6,0.3-0.7c0.7-1.3,2.9-3.4,4.6-3.1c1.2,0.2,1.8,1.5,1.4,2.6c-0.3,1.1-1.6,1.9-2.6,2.3c-1,0.4-3.2,0.3-3.9,0.2
				c-0.1,0.6-0.2,1.2-0.3,1.7c0,0.4-0.1,0.8-0.1,1.2c0,0.4-0.1,0.8-0.1,1.2c0,0.7,0,1.5-0.1,2.2c0,0.5,0,1,0,1.5
				c0.1-0.6,0.4-1.7,0.4-1.8c0.3-0.9,1.3-2.3,2.4-3.1c0.1-0.1,0.1-0.3,0.2-0.4c0.6-1,1.9-1.4,2.9-0.7c1.4,1,1.3,4,0.8,5.5
				c0,0.1-0.4,1-0.7,1.5c0.2-0.3,0.4-0.6,0.6-0.9c0.4-0.6,0.9-1.2,1.3-1.8c0.2-0.3,0.5-0.6,0.7-0.9c0.2-0.3,0.5-0.6,0.8-0.9
				c0.6-0.7,1.3-1.4,2-2c-0.5-0.4-2.4-1.7-3-2.7c-0.6-1-1-2.4-0.6-3.5c0.4-1.1,1.7-1.7,2.8-1.1c1.5,0.8,1.9,3.8,1.6,5.3
				c0,0.1-0.3,1.1-0.5,1.7c0.4-0.4,0.8-0.8,1.3-1.2c1.3-1.1,2.6-2.2,3.9-3.3c0.4-0.3,0.8-0.7,1.2-1c-0.2-0.1-2.4-1.7-3.1-2.8
				c-0.6-1-1-2.4-0.6-3.5c0.4-1.1,1.7-1.7,2.8-1.1c1.5,0.8,1.9,3.8,1.6,5.3c0,0.1-0.5,1.6-0.6,2c0.9-0.7,1.7-1.5,2.5-2.3
				c1.1-1.1,2.2-2.2,3.1-3.3c-0.1-0.1-2.4-1.7-3.1-2.8c-0.6-1-1-2.4-0.6-3.5c0.4-1.1,1.7-1.7,2.8-1.1c1.5,0.8,1.9,3.8,1.6,5.3
				c0,0.1-0.5,1.7-0.6,2c0.1-0.1,0.1-0.1,0.2-0.2c1-1.2,1.8-2.6,2.4-3.8c0.4-0.7,0.7-1.5,1-2.2c-0.5-0.3-2.6-1.5-3.3-2.4
				c-0.7-0.9-1.3-2.2-1-3.4c0.3-1.1,1.5-1.8,2.6-1.4c1.6,0.6,2.3,3.6,2.2,5.1c0,0.1-0.2,0.9-0.3,1.5c0.1-0.3,0.3-0.7,0.4-1
				c0.5-1.2,0.8-2.3,1.1-3.3c0.2-0.6,0.3-1.1,0.4-1.6c-0.3-0.5-1.6-2.5-1.8-3.6c-0.2-1.1-0.1-2.6,0.7-3.4c0.8-0.8,2.2-0.9,3,0
				c1.1,1.3,0.4,4.2-0.4,5.5c-0.1,0.1-1.3,1.7-1.3,1.7c0,0,0,0,0,0c-0.1,0.5-0.2,1-0.4,1.5c-0.3,1-0.6,2.1-1.1,3.3
				c-0.4,1.2-1,2.5-1.6,3.8c-0.7,1.3-1.4,2.7-2.4,4c0,0,0,0,0,0c0.4-0.3,1.5-1.1,1.6-1.1c1.3-0.7,4.3-1.2,5.5-0.1
				c0.9,0.9,0.7,2.2-0.2,3C448.1,156.8,446.6,156.8,445.5,156.5z"/>
			<path class="st1" d="M421.6,138.5c0,0,0.2-2,0.3-2.2c0.4-1.5,1.9-4.1,3.6-4.2c1.2-0.1,2.1,1,2.1,2.1c0,1.2-1,2.3-1.9,2.9
				C424.6,137.9,421.6,138.5,421.6,138.5z"/>
		</g>
		<g>
			<path class="st1" d="M496.4,279.6c-0.7-1.1-1.1-4-1.1-4c0,0,2,0.3,2.1,0.3c1.4,0.4,4,2.1,4,3.8c0,1.2-1,2.1-2.2,2
				C498.1,281.6,497.1,280.5,496.4,279.6z"/>
			<path class="st1" d="M487.8,280c-0.4-1.2-0.1-3.9,0-4.2c-1.5-0.2-3.1-0.5-4.6-0.9c-0.9-0.2-1.8-0.5-2.7-0.7
				c0.4,0.2,0.7,0.3,0.8,0.4c1.3,0.8,3.3,3.1,2.9,4.7c-0.3,1.2-1.6,1.7-2.7,1.3c-1.1-0.4-1.9-1.7-2.2-2.7c-0.3-1.1-0.1-3.4,0-4
				c-0.3-0.1-0.7-0.2-1-0.3c-1.6-0.5-3.2-1-4.8-1.5c-0.6-0.2-1.1-0.3-1.7-0.4c0.3,0.2,0.6,0.3,0.7,0.3c1.3,0.8,3.3,3.1,2.9,4.7
				c-0.3,1.2-1.6,1.7-2.7,1.3c-1.1-0.4-1.9-1.7-2.2-2.7c-0.3-1-0.1-3.2-0.1-3.9c-0.6-0.1-1.2-0.3-1.7-0.3c-0.4-0.1-0.8-0.1-1.2-0.2
				c-0.4,0-0.8-0.1-1.2-0.1c-0.7-0.1-1.5-0.1-2.2-0.1c-0.5,0-1,0-1.5-0.1c0.6,0.2,1.7,0.5,1.8,0.5c1.4,0.6,3.7,2.5,3.6,4.2
				c-0.1,1.2-1.3,1.9-2.4,1.7c-1.2-0.2-2.1-1.4-2.6-2.4c-0.5-1.1-0.6-3.7-0.7-4.1c-0.8,0-1.6,0-2.3-0.1c-0.7,0-1.3,0-1.9,0l-0.2-1
				c0.7,0,1.3,0,2.1,0c0.8,0,1.7,0.1,2.6,0.1c0-0.2,0.3-1.4,0.7-2.4c-1.1-0.7-2.5-2.7-2.7-3c-0.7,0.4-1.3,0.8-2,1.2
				c-0.4,0.3-0.8,0.5-1.2,0.8l-0.2-1.1c0.3-0.2,0.6-0.4,0.9-0.5c0.7-0.4,1.4-0.9,2.2-1.3c-0.1-0.3-1.1-2.8-1-4
				c0.1-1.1,0.5-2.5,1.5-3.2c1-0.6,2.3-0.4,2.9,0.6c0.8,1.5-0.6,4.2-1.7,5.3c-0.1,0.1-0.8,0.7-1.3,1.1c0.3-0.2,0.6-0.4,0.9-0.5
				c0.6-0.4,1.3-0.7,2-1.1c0.3-0.2,0.7-0.3,1-0.5c0.3-0.2,0.7-0.3,1.1-0.5c0.9-0.4,1.8-0.7,2.7-1c-0.3-0.6-1.4-2.6-1.5-3.7
				c-0.1-1.1,0.1-2.6,1-3.4c0.9-0.8,2.2-0.8,3,0.2c1,1.4,0,4.2-0.8,5.5c-0.1,0.1-0.8,0.9-1.2,1.3c0.5-0.2,1.1-0.4,1.7-0.5
				c1.6-0.5,3.3-0.9,4.9-1.3c0.5-0.1,1-0.3,1.5-0.4c-0.1-0.2-1.5-2.6-1.6-3.8c-0.1-1.1,0.1-2.6,1-3.4c0.9-0.8,2.2-0.8,3,0.2
				c1,1.4,0,4.2-0.8,5.5c-0.1,0.1-1.1,1.3-1.4,1.5c1.1-0.3,2.2-0.6,3.3-1c1.5-0.5,2.9-1,4.2-1.7c-0.1-0.1-1.5-2.6-1.6-3.9
				c-0.1-1.1,0.1-2.6,1-3.4c0.9-0.8,2.2-0.8,3,0.2c1,1.4,0,4.2-0.8,5.5c-0.1,0.1-1.2,1.3-1.4,1.6c0.1,0,0.2-0.1,0.2-0.1
				c1.4-0.7,2.7-1.6,3.9-2.4c0.7-0.5,1.3-1,1.9-1.5c-0.3-0.4-1.7-2.4-2-3.6c-0.2-1.1-0.2-2.6,0.6-3.5c0.8-0.9,2.1-1,3-0.1
				c1.1,1.2,0.5,4.2-0.2,5.5c0,0.1-0.5,0.8-0.9,1.2c0.3-0.2,0.5-0.5,0.8-0.7c0.9-0.9,1.7-1.7,2.4-2.5c0.4-0.4,0.7-0.8,1.1-1.2
				c-0.1-0.6-0.4-2.9-0.1-4.1c0.3-1.1,1-2.4,2.1-2.8c1.1-0.4,2.4,0.1,2.7,1.2c0.4,1.6-1.5,4-2.7,4.8c-0.1,0.1-1.9,1-1.9,1
				c0,0,0,0,0,0c-0.3,0.4-0.6,0.8-1,1.2c-0.7,0.8-1.5,1.6-2.4,2.5c-0.9,0.9-1.9,1.8-3.1,2.7c-1.2,0.9-2.4,1.8-3.9,2.5c0,0,0,0-0.1,0
				c0.5-0.1,1.9-0.3,2-0.3c1.5-0.1,4.4,0.7,5,2.3c0.4,1.1-0.3,2.3-1.5,2.6c-1.2,0.3-2.5-0.4-3.3-1.1c-1-0.8-2.2-3.3-2.3-3.4
				c-1.4,0.7-2.8,1.3-4.3,1.8c-0.9,0.3-1.7,0.6-2.6,0.9c0.4-0.1,0.8-0.1,0.9-0.1c1.5-0.1,4.4,0.7,5,2.3c0.4,1.1-0.3,2.3-1.5,2.6
				c-1.2,0.3-2.5-0.4-3.3-1.1c-0.9-0.7-2-2.8-2.3-3.3c-0.3,0.1-0.7,0.2-1,0.3c-1.6,0.5-3.3,0.9-4.9,1.4c-0.6,0.2-1.1,0.4-1.7,0.6
				c0.4-0.1,0.7-0.1,0.7-0.1c1.5-0.1,4.4,0.7,5,2.3c0.4,1.1-0.3,2.3-1.5,2.6c-1.2,0.3-2.5-0.4-3.3-1.1c-0.8-0.7-1.9-2.6-2.2-3.2
				c-0.6,0.2-1.1,0.4-1.6,0.7c-0.4,0.2-0.7,0.3-1.1,0.5c-0.3,0.2-0.7,0.4-1,0.5c-0.6,0.4-1.3,0.7-1.9,1.1c-0.4,0.3-0.8,0.5-1.3,0.8
				c0.6-0.2,1.6-0.5,1.7-0.5c1-0.2,2.6-0.1,3.9,0.4c0.1,0,0.3,0,0.4,0c1.2,0,2.2,0.9,2.1,2.1c-0.2,1.7-2.8,3.2-4.3,3.5
				c-0.1,0-1.1,0.1-1.7,0.2c0.4,0,0.7,0,1.1,0.1c0.7,0.1,1.5,0.1,2.3,0.2c0.4,0.1,0.8,0.1,1.2,0.2c0.4,0,0.8,0.1,1.2,0.2
				c0.9,0.2,1.8,0.4,2.8,0.6c0-0.6,0.2-2.9,0.8-3.9c0.5-1,1.5-2.1,2.7-2.3c1.1-0.2,2.3,0.6,2.4,1.8c0.1,1.7-2.3,3.5-3.7,4.1
				c-0.1,0-1.1,0.3-1.7,0.4c0.6,0.2,1.1,0.3,1.7,0.5c1.6,0.5,3.2,1,4.8,1.6c0.5,0.2,1,0.3,1.5,0.5c0-0.2,0.2-3,0.8-4.1
				c0.5-1,1.5-2.1,2.7-2.3c1.1-0.2,2.3,0.6,2.4,1.8c0.1,1.7-2.3,3.5-3.7,4.1c-0.1,0-1.6,0.4-2,0.5c1.1,0.4,2.2,0.7,3.3,1
				c1.5,0.4,3,0.7,4.5,0.9c0-0.1,0.2-3,0.8-4.1c0.5-1,1.5-2.1,2.7-2.3c1.1-0.2,2.3,0.6,2.4,1.8c0.1,1.7-2.3,3.5-3.7,4.1
				c-0.1,0-1.7,0.5-2,0.5c0.1,0,0.2,0,0.3,0c1.6,0.2,3.1,0.2,4.6,0.1c0.8,0,1.6-0.1,2.4-0.2c0-0.5-0.1-3,0.3-4.1
				c0.4-1,1.2-2.3,2.4-2.6c1.1-0.3,2.3,0.3,2.5,1.5c0.3,1.7-1.9,3.8-3.2,4.5c-0.1,0-0.9,0.3-1.4,0.5c0.4-0.1,0.7-0.1,1-0.2
				c1.3-0.2,2.4-0.5,3.4-0.7c0.6-0.1,1.1-0.3,1.6-0.4c0.3-0.5,1.3-2.7,2.2-3.4c0.9-0.7,2.1-1.4,3.3-1.2c1.1,0.2,1.9,1.4,1.6,2.5
				c-0.5,1.6-3.4,2.5-4.9,2.5c-0.1,0-2.2-0.2-2.1-0.3c0,0,0,0,0,0c-0.5,0.1-1,0.3-1.5,0.4c-1,0.3-2.1,0.6-3.4,0.8
				c-1.3,0.2-2.6,0.5-4.1,0.6c-1.5,0.1-3,0.1-4.6,0c0,0,0,0-0.1,0c0.5,0.2,1.7,0.8,1.8,0.8c1.3,0.8,3.3,3.1,2.9,4.7
				c-0.3,1.2-1.6,1.7-2.7,1.3C488.9,282.3,488.2,281,487.8,280z"/>
			<path class="st1" d="M491,250.2c0,0,1.9-0.8,2-0.9c1.4-0.4,4.5-0.5,5.4,0.9c0.7,1,0.3,2.3-0.7,2.9c-1,0.6-2.5,0.3-3.5-0.2
				C492.9,252.4,491,250.2,491,250.2z"/>
		</g>
		<g>
			<path class="st1" d="M262.6,279.6c0.7-1.1,1.1-4,1.1-4c0,0-2,0.3-2.1,0.3c-1.4,0.4-4,2.1-4,3.8c0,1.2,1,2.1,2.2,2
				C260.9,281.6,262,280.5,262.6,279.6z"/>
			<path class="st1" d="M271.2,280c0.4-1.2,0.1-3.9,0-4.2c1.5-0.2,3.1-0.5,4.6-0.9c0.9-0.2,1.8-0.5,2.7-0.7
				c-0.4,0.2-0.7,0.3-0.8,0.4c-1.3,0.8-3.3,3.1-2.9,4.7c0.3,1.2,1.6,1.7,2.7,1.3c1.1-0.4,1.9-1.7,2.2-2.7c0.3-1.1,0.1-3.4,0-4
				c0.3-0.1,0.7-0.2,1-0.3c1.6-0.5,3.2-1,4.8-1.5c0.6-0.2,1.1-0.3,1.7-0.4c-0.3,0.2-0.6,0.3-0.7,0.3c-1.3,0.8-3.3,3.1-2.9,4.7
				c0.3,1.2,1.6,1.7,2.7,1.3c1.1-0.4,1.9-1.7,2.2-2.7c0.3-1,0.1-3.2,0.1-3.9c0.6-0.1,1.2-0.3,1.7-0.3c0.4-0.1,0.8-0.1,1.2-0.2
				c0.4,0,0.8-0.1,1.2-0.1c0.7-0.1,1.5-0.1,2.2-0.1c0.5,0,1,0,1.5-0.1c-0.6,0.2-1.7,0.5-1.8,0.5c-1.4,0.6-3.7,2.5-3.6,4.2
				c0.1,1.2,1.3,1.9,2.4,1.7c1.2-0.2,2.1-1.4,2.6-2.4c0.5-1.1,0.6-3.7,0.7-4.1c0.8,0,1.6,0,2.3-0.1c0.7,0,1.3,0,1.9,0l0.2-1
				c-0.7,0-1.3,0-2.1,0c-0.8,0-1.7,0.1-2.6,0.1c0-0.2-0.3-1.4-0.7-2.4c1.1-0.7,2.5-2.7,2.7-3c0.7,0.4,1.3,0.8,2,1.2
				c0.4,0.3,0.8,0.5,1.2,0.8l0.2-1.1c-0.3-0.2-0.6-0.4-0.9-0.5c-0.7-0.4-1.4-0.9-2.2-1.3c0.1-0.3,1.1-2.8,1-4
				c-0.1-1.1-0.5-2.5-1.5-3.2c-1-0.6-2.3-0.4-2.9,0.6c-0.8,1.5,0.6,4.2,1.7,5.3c0.1,0.1,0.8,0.7,1.3,1.1c-0.3-0.2-0.6-0.4-0.9-0.5
				c-0.6-0.4-1.3-0.7-2-1.1c-0.3-0.2-0.7-0.3-1-0.5c-0.3-0.2-0.7-0.3-1.1-0.5c-0.9-0.4-1.8-0.7-2.7-1c0.3-0.6,1.4-2.6,1.5-3.7
				c0.1-1.1-0.1-2.6-1-3.4c-0.9-0.8-2.2-0.8-3,0.2c-1,1.4,0,4.2,0.8,5.5c0.1,0.1,0.8,0.9,1.2,1.3c-0.5-0.2-1.1-0.4-1.7-0.5
				c-1.6-0.5-3.3-0.9-4.9-1.3c-0.5-0.1-1-0.3-1.5-0.4c0.1-0.2,1.5-2.6,1.6-3.8c0.1-1.1-0.1-2.6-1-3.4c-0.9-0.8-2.2-0.8-3,0.2
				c-1,1.4,0,4.2,0.8,5.5c0.1,0.1,1.1,1.3,1.4,1.5c-1.1-0.3-2.2-0.6-3.3-1c-1.5-0.5-2.9-1-4.2-1.7c0.1-0.1,1.5-2.6,1.6-3.9
				c0.1-1.1-0.1-2.6-1-3.4c-0.9-0.8-2.2-0.8-3,0.2c-1,1.4,0,4.2,0.8,5.5c0.1,0.1,1.2,1.3,1.4,1.6c-0.1,0-0.2-0.1-0.2-0.1
				c-1.4-0.7-2.7-1.6-3.9-2.4c-0.7-0.5-1.3-1-1.9-1.5c0.3-0.4,1.7-2.4,2-3.6c0.2-1.1,0.2-2.6-0.6-3.5c-0.8-0.9-2.1-1-3-0.1
				c-1.1,1.2-0.5,4.2,0.2,5.5c0,0.1,0.5,0.8,0.9,1.2c-0.3-0.2-0.5-0.5-0.8-0.7c-0.9-0.9-1.7-1.7-2.4-2.5c-0.4-0.4-0.7-0.8-1.1-1.2
				c0.1-0.6,0.4-2.9,0.1-4.1c-0.3-1.1-1-2.4-2.1-2.8c-1.1-0.4-2.4,0.1-2.7,1.2c-0.4,1.6,1.5,4,2.7,4.8c0.1,0.1,1.9,1,1.9,1
				c0,0,0,0,0,0c0.3,0.4,0.6,0.8,1,1.2c0.7,0.8,1.5,1.6,2.4,2.5c0.9,0.9,1.9,1.8,3.1,2.7c1.2,0.9,2.4,1.8,3.9,2.5c0,0,0,0,0.1,0
				c-0.5-0.1-1.9-0.3-2-0.3c-1.5-0.1-4.4,0.7-5,2.3c-0.4,1.1,0.3,2.3,1.5,2.6c1.2,0.3,2.5-0.4,3.3-1.1c1-0.8,2.2-3.3,2.3-3.4
				c1.4,0.7,2.8,1.3,4.3,1.8c0.9,0.3,1.7,0.6,2.6,0.9c-0.4-0.1-0.8-0.1-0.9-0.1c-1.5-0.1-4.4,0.7-5,2.3c-0.4,1.1,0.3,2.3,1.5,2.6
				c1.2,0.3,2.5-0.4,3.3-1.1c0.9-0.7,2-2.8,2.3-3.3c0.3,0.1,0.7,0.2,1,0.3c1.6,0.5,3.3,0.9,4.9,1.4c0.6,0.2,1.1,0.4,1.7,0.6
				c-0.4-0.1-0.7-0.1-0.7-0.1c-1.5-0.1-4.4,0.7-5,2.3c-0.4,1.1,0.3,2.3,1.5,2.6c1.2,0.3,2.5-0.4,3.3-1.1c0.8-0.7,1.9-2.6,2.2-3.2
				c0.6,0.2,1.1,0.4,1.6,0.7c0.4,0.2,0.7,0.3,1.1,0.5c0.3,0.2,0.7,0.4,1,0.5c0.6,0.4,1.3,0.7,1.9,1.1c0.4,0.3,0.8,0.5,1.3,0.8
				c-0.6-0.2-1.6-0.5-1.7-0.5c-1-0.2-2.6-0.1-3.9,0.4c-0.1,0-0.3,0-0.4,0c-1.2,0-2.2,0.9-2.1,2.1c0.2,1.7,2.8,3.2,4.3,3.5
				c0.1,0,1.1,0.1,1.7,0.2c-0.4,0-0.7,0-1.1,0.1c-0.7,0.1-1.5,0.1-2.3,0.2c-0.4,0.1-0.8,0.1-1.2,0.2c-0.4,0-0.8,0.1-1.2,0.2
				c-0.9,0.2-1.8,0.4-2.8,0.6c0-0.6-0.2-2.9-0.8-3.9c-0.5-1-1.5-2.1-2.7-2.3c-1.1-0.2-2.3,0.6-2.4,1.8c-0.1,1.7,2.3,3.5,3.7,4.1
				c0.1,0,1.1,0.3,1.7,0.4c-0.6,0.2-1.1,0.3-1.7,0.5c-1.6,0.5-3.2,1-4.8,1.6c-0.5,0.2-1,0.3-1.5,0.5c0-0.2-0.2-3-0.8-4.1
				c-0.5-1-1.5-2.1-2.7-2.3c-1.1-0.2-2.3,0.6-2.4,1.8c-0.1,1.7,2.3,3.5,3.7,4.1c0.1,0,1.6,0.4,2,0.5c-1.1,0.4-2.2,0.7-3.3,1
				c-1.5,0.4-3,0.7-4.5,0.9c0-0.1-0.2-3-0.8-4.1c-0.5-1-1.5-2.1-2.7-2.3c-1.1-0.2-2.3,0.6-2.4,1.8c-0.1,1.7,2.3,3.5,3.7,4.1
				c0.1,0,1.7,0.5,2,0.5c-0.1,0-0.2,0-0.3,0c-1.6,0.2-3.1,0.2-4.6,0.1c-0.8,0-1.6-0.1-2.4-0.2c0-0.5,0.1-3-0.3-4.1
				c-0.4-1-1.2-2.3-2.4-2.6c-1.1-0.3-2.3,0.3-2.5,1.5c-0.3,1.7,1.9,3.8,3.2,4.5c0.1,0,0.9,0.3,1.4,0.5c-0.4-0.1-0.7-0.1-1-0.2
				c-1.3-0.2-2.4-0.5-3.4-0.7c-0.6-0.1-1.1-0.3-1.6-0.4c-0.3-0.5-1.3-2.7-2.2-3.4c-0.9-0.7-2.1-1.4-3.3-1.2
				c-1.1,0.2-1.9,1.4-1.6,2.5c0.5,1.6,3.4,2.5,4.9,2.5c0.1,0,2.2-0.2,2.1-0.3c0,0,0,0,0,0c0.5,0.1,1,0.3,1.5,0.4
				c1,0.3,2.1,0.6,3.4,0.8c1.3,0.2,2.6,0.5,4.1,0.6c1.5,0.1,3,0.1,4.6,0c0,0,0,0,0.1,0c-0.5,0.2-1.7,0.8-1.8,0.8
				c-1.3,0.8-3.3,3.1-2.9,4.7c0.3,1.2,1.6,1.7,2.7,1.3C270.1,282.3,270.9,281,271.2,280z"/>
			<path class="st1" d="M268.1,250.2c0,0-1.9-0.8-2-0.9c-1.4-0.4-4.5-0.5-5.4,0.9c-0.7,1-0.3,2.3,0.7,2.9c1,0.6,2.5,0.3,3.5-0.2
				C266.1,252.4,268.1,250.2,268.1,250.2z"/>
		</g>
	</g>
</g>
<g id="Squares">
	<g>
		<polyline class="st2" points="520.4,368.4 528,368.4 528,385.5 510.9,385.5 510.9,368.4 516.6,368.4 		"/>
		<rect x="510.9" y="396.3" class="st2" width="17.1" height="17.1"/>
		<rect x="510.9" y="424.3" class="st2" width="17.1" height="17.1"/>
		<line class="st2" x1="537.6" y1="377.2" x2="583.2" y2="377.2"/>
		<line class="st2" x1="537.6" y1="406.2" x2="583.2" y2="406.2"/>
		<line class="st2" x1="537.6" y1="434.7" x2="583.2" y2="434.7"/>
		<rect x="599" y="368.4" class="st2" width="17.1" height="17.1"/>
		<polyline class="st2" points="604.6,413.4 599,413.4 599,396.3 616.1,396.3 616.1,413.4 609.8,413.4 		"/>
		<rect x="599" y="424.3" class="st2" width="17.1" height="17.1"/>
		<line class="st2" x1="625.7" y1="377.2" x2="671.3" y2="377.2"/>
		<line class="st2" x1="625.7" y1="406.2" x2="671.3" y2="406.2"/>
		<line class="st2" x1="625.7" y1="434.7" x2="671.3" y2="434.7"/>
	</g>
</g>
<g id="Globe">
	<g>
		<path class="st2" d="M676.5,297.1c4.9-12.5,6.3-26.5,3.2-40.5c-8.3-37.5-45.4-61.1-82.9-52.8c-37.5,8.3-61.1,45.4-52.8,82.9
			c8.3,37.5,45.4,61.1,82.9,52.8c20.5-4.6,36.9-17.7,46.1-34.9"/>
		<g>
			<path class="st3" d="M597.9,336c3.7,0.8,7.5,1.3,11.3,1.4"/>
			<path class="st3" d="M589.3,333.5c1.9,0.7,3.8,1.3,5.8,1.8"/>
			<path class="st3" d="M548.5,253.6c-2.9,10.2-3.4,21.2-0.9,32.3c4.9,21.9,20.1,38.8,39.4,46.7"/>
			<path class="st3" d="M557.4,234.7c-2.4,3.5-4.4,7.2-6.1,11.1"/>
		</g>
		<polygon class="st3" points="602.4,240.8 609.5,242.2 611.9,244.8 615.1,245.2 616.1,248.2 615.3,250.2 613.2,251.2 607.9,250.4 
			607.8,249.7 610.3,248 608.5,244.8 603.8,244.2 601.3,242 		"/>
		<path class="st3" d="M659.5,306.2l-5.6-0.9l-6.8-0.9l-5,1.1l-4.9,0.1l-4.9,2.3l-2.9,0.8l-1.8,0.4l-3,2.7l-2.9,2l-5-1.8l0.1-4.8
			l-3-0.5l-3.2,0.7L610,306l-0.3-3l-1.5-1.4l-2.2,0.8l-0.3,1.8L603,305l-3.1-2.4l-1.8-3.7l1.4-5l4.7-0.7l1.5,0.8l1.9-0.4l2.1-2
			l2.2,0.2l4,4.3l1.1-0.4l-1.1-3.6l-1.4-1.7l-0.4-3.1l5.4-3.9l-0.5-6.1l2.1-2.7l1.3-4.2l1.5-0.7l3.2-3.2l-0.1-1.3l-2.5,0.7l-0.8-1.2
			l-1.8,0.4l-2.6,1.3l0.8-2.4l5.3-2.9l1-1.7l3,3l1.8,1.1l2.1-1.1l-1.4-1.9l-3.9-1.7l-4.8-3.5l-4.6-1.8l-4,0.2l-2.4-1.5l-2.7-0.1
			l-0.2,0.7l0.7,4.7l1,1.5l-0.3,5.5l-3.8-1.9l0-2.4l-3.7-0.9l-1.8-1.4l-0.1-4.2l3.9-4.4l-0.5-3.9l-1.7,0.6l-1.4-1.2l-1-2.3l-1.2,0.1
			l-0.1,2.7l-1.7,0.7l-2.1-5.5l-1.5-0.5l-2.5-0.5l-2.3,1.9l3.9,2.3l1.3,2.6l-6.8-3.1l-5-3.5l-1.3-4.3l-4.5-0.4l-2.8,2.8
			c0,0-1.4,1.3-2.1,1.8c-0.7,0.5-3.7,1.5-3.7,1.5l0,2.9l-3.7,1l0.7,1.7l6.2-0.4l3.8,2.7l1.3,5.6l-0.7,5.4l1.5,5.2l-2.8,8.9l1.6,12
			l3,6.4l3.2,4.7l2.5-0.2l-1.4-2.4l-1.7-1.6l-1.6-3.4l1.4-0.6l3.5,5.3l2.8,4.8l0.9,4.2l3.9,3l6.4,2.8l8.9,0.4l3.1,1.8l2.5,2.1
			l3.3,1.1l3.8,0.2l3.5-0.9c0,0,0.2,1.6,0.4,2.5c0.2,0.8-1.5,4-1.5,4l-1.1,3.6l2.1,3.3l3.9,0.7l6.1,4l2.5,0.5l0.5,2.4l0.5,1.1
			c12.4-4.9,22.7-13.1,30.2-23.4l-0.2-1.2l2.6-8.9l-2.4-1L659.5,306.2z"/>
		<path class="st3" d="M662.1,238.8l-2.5-2.7l-3-3l-1.7-4.7l3-0.2l-0.2-1.6l-2.1,0.3l1.6-1.2l1.7-1.6l-0.4-1.6l-2.5-2.1l-1.2-3.4
			c-15.8-12.4-36.9-18-58.1-13.3c-9.6,2.1-18.3,6.2-25.8,11.6l4.3,1.8l-1.6,3.4l-2.9,1.3l0.6,4.4l-1.2,0.8l-1.2,2.1l0.8,2.9l2.8-0.3
			l-0.5,3l2.7-0.6l3.3-7l-0.1-2.7l4.4-1.3l0.7-2.2l4.6-1.5l-0.1-2.8l3.3-0.9c0,0,2.1-1.8,2.6-1.9c0.5-0.1,2.9,0.2,2.9,0.2l2.8,1.4
			l3.4-0.8l2.5-2.4l3.8-0.5c0,0,1.1,0.4,1.9,0.3c0.8-0.2,3-1.8,3-1.8l5.3,1.9l2.3,1l0.5,2.4l2.5-0.2l0.5-1.6l2.3,0.5l0.1,1.3
			l-4.5,2.4l3.5,2.9l6.5,1.9l3.1,2.7l3.6-0.5l0.4-1.8l1.2-0.6l-4.9-2.3l-2.6,0.3l2-1.1l-2.5-2.3l2.7-0.8l4,1.1l1.7,3.7l2.2,1.7
			l2.5,4.3l4.1,1.8l1.2,5.3l4.2,1.6l0.2,1.8l0,2.2l1.6,2.7l0.6,1.4l2.8-0.1l0.7-3L662.1,238.8z"/>
		<path class="st3" d="M660.6,222.2l0.2,0.9l-0.2,2.8l1,2.1l1.9,0.3l0.7,3.1l-2.1-0.4l1.4,8.8l-1.1,4l2.3,4.2l2.5,1.5l1.9,8.7
			l3.6,6.3l3.4,4.7l3.9,0.1l0.6-3.5l0.4-0.5c-0.3-2.8-0.7-5.7-1.4-8.6C676.7,243,669.8,231.2,660.6,222.2z"/>
		<polygon class="st3" points="623.2,229.4 611.5,227.1 606.9,228.3 606.4,231.6 604,229.9 600.7,231.5 601.5,236.9 604.9,238.4 
			606.3,234.8 609.3,236.7 615.2,240 617.2,244.4 622.6,248.8 629.1,246.2 628.4,243.8 626.4,241.4 624.6,235 625.6,231.9 		"/>
		<polygon class="st3" points="632.7,231 630.1,230.9 628.4,233.1 630.6,237.6 632.7,237.1 		"/>
		<polygon class="st3" points="648.3,230.7 642.2,229.1 640.7,227.4 639.5,228.2 641.3,231.1 643.2,235.1 645.8,235.5 646.2,234.8 
			644.2,232.7 648.7,233.4 		"/>
		<polygon class="st3" points="614.2,299.3 613.7,300.1 618.9,300.5 621.3,302.3 624.4,302 625.2,299.9 621.3,300.1 		"/>
		<polygon class="st3" points="629.2,299.2 626.1,300.9 626.8,302.1 631,301.2 631.5,299.7 630.1,300.2 		"/>
	</g>
</g>
<g id="Rulers">
</g>
<g id="Equation">
</g>
<g id="Plant">
</g>
<g id="Sun">
</g>
<g id="Pencil">
	<g>
		<path class="st2" d="M116,179.2l-13-29.6l27.8,16.7l154.4,177.8c2.8,3.3,2.5,8.2-0.8,11.1l-3,2.6c-3.3,2.8-8.2,2.5-11.1-0.8
			L116,179.2z"/>
		<polygon class="st2" points="130.8,166.2 103,149.6 116,179.1 		"/>
		<polygon class="st4" points="119.5,159.4 103,149.6 110.7,167.1 		"/>
		<path class="st2" d="M281.4,357.7l3-2.6c3.3-2.8,3.6-7.8,0.8-11.1L270,326.6l-14.8,12.9l15.2,17.5
			C273.2,360.2,278.2,360.6,281.4,357.7z"/>
		
			<rect x="254.7" y="332.3" transform="matrix(0.7551 -0.6557 0.6557 0.7551 -155.0082 255.5781)" class="st2" width="19.7" height="5.9"/>
		
			<rect x="251" y="328" transform="matrix(0.7551 -0.6557 0.6557 0.7551 -153.1034 252.0765)" class="st2" width="19.7" height="5.9"/>
		<line class="st2" x1="260.5" y1="323.7" x2="128.6" y2="171.8"/>
		<line class="st2" x1="234.7" y1="306.4" x2="163.2" y2="224.1"/>
		<line class="st2" x1="156.3" y1="216.2" x2="124.8" y2="179.9"/>
	</g>
</g>
<g id="Books">
	<g>
		<path class="st3" d="M205.3,372l-10.5,43.8c0,0,3.6,5.1,5.1,6.5c1.4,1.4,4.7,1.4,5.8,1.4s42,0.7,42,0.7l8-53.6"/>
		<line class="st3" x1="214.1" y1="363.8" x2="210.7" y2="363.7"/>
		<polyline class="st3" points="197,416.6 241.1,416.4 250.5,364.4 218.1,363.9 		"/>
		<polyline class="st3" points="199.5,416.9 203.1,420.9 245.5,422 253.1,375.6 249.8,371 		"/>
		<path class="st0" d="M206.9,419.2h6.1c0,0-1,4.9-1.5,9.5c-0.5,4.6-0.8,10.5-0.8,10.5l-3.6-6.6l-4.3,5.6L206.9,419.2z"/>
	</g>
	<g>
		<polyline class="st3" points="82.1,196 65.4,222.2 69,223.1 85.7,198.2 112.3,213.6 115.9,210 86.6,194.6 		"/>
		<polyline class="st3" points="85.7,198.2 92.9,241.6 115,254.2 111.9,215.8 		"/>
		<polyline class="st3" points="115,254.2 118.7,247.5 115.9,210 		"/>
		<polyline class="st3" points="92.9,241.6 78,261.9 70.3,226.7 		"/>
		<polyline class="st3" points="65.4,222.2 73.9,261.5 78,261.9 		"/>
		<line class="st3" x1="86.6" y1="213.1" x2="74.8" y2="229.4"/>
		<line class="st3" x1="87.5" y1="220.8" x2="75.8" y2="237.1"/>
		<line class="st3" x1="88.4" y1="228.5" x2="76.7" y2="244.7"/>
		<line class="st3" x1="89.3" y1="236.2" x2="77.6" y2="252.4"/>
		<line class="st3" x1="91.6" y1="213.6" x2="107.4" y2="222.6"/>
		<line class="st3" x1="91.6" y1="220.8" x2="107.4" y2="229.8"/>
		<line class="st3" x1="93.8" y1="228.5" x2="109.6" y2="237.5"/>
		<line class="st3" x1="94.3" y1="236.2" x2="110.1" y2="245.2"/>
	</g>
</g>
<g id="Circles">
	<g>
		
			<ellipse transform="matrix(0.7071 -0.7071 0.7071 0.7071 -179.5129 152.7263)" class="st2" cx="94.6" cy="293.1" rx="8.6" ry="8.6"/>
		
			<ellipse transform="matrix(0.1826 -0.9832 0.9832 0.1826 -190.7003 356.7405)" class="st2" cx="119.2" cy="293.1" rx="8.6" ry="8.6"/>
		
			<ellipse transform="matrix(0.2298 -0.9732 0.9732 0.2298 -174.4722 365.6541)" class="st4" cx="143.8" cy="293.1" rx="8.6" ry="8.6"/>
		
			<ellipse transform="matrix(0.7071 -0.7071 0.7071 0.7071 -157.9084 204.8843)" class="st2" cx="168.4" cy="293.1" rx="8.6" ry="8.6"/>
		
			<ellipse transform="matrix(0.7071 -0.7071 0.7071 0.7071 -197.7682 160.2879)" class="st2" cx="94.6" cy="318.9" rx="8.6" ry="8.6"/>
		
			<ellipse transform="matrix(0.1826 -0.9832 0.9832 0.1826 -216.0834 377.8443)" class="st4" cx="119.2" cy="318.9" rx="8.6" ry="8.6"/>
		
			<ellipse transform="matrix(0.2298 -0.9732 0.9732 0.2298 -199.5984 385.5395)" class="st2" cx="143.8" cy="318.9" rx="8.6" ry="8.6"/>
		
			<ellipse transform="matrix(0.7071 -0.7071 0.7071 0.7071 -176.1637 212.4459)" class="st2" cx="168.4" cy="318.9" rx="8.6" ry="8.6"/>
		
			<ellipse transform="matrix(0.2298 -0.9732 0.9732 0.2298 -262.6018 357.5645)" class="st2" cx="94.6" cy="344.7" rx="8.6" ry="8.6"/>
		
			<ellipse transform="matrix(0.8702 -0.4927 0.4927 0.8702 -154.357 103.4645)" class="st2" cx="119.2" cy="344.7" rx="8.6" ry="8.6"/>
		
			<ellipse transform="matrix(0.7071 -0.7071 0.7071 0.7071 -201.6205 202.6215)" class="st2" cx="143.8" cy="344.7" rx="8.6" ry="8.6"/>
		
			<ellipse transform="matrix(0.2298 -0.9732 0.9732 0.2298 -205.7865 429.3539)" class="st4" cx="168.4" cy="344.7" rx="8.6" ry="8.6"/>
		
			<ellipse transform="matrix(0.2298 -0.9732 0.9732 0.2298 -287.7281 377.4499)" class="st2" cx="94.6" cy="370.5" rx="8.6" ry="8.6"/>
		
			<ellipse transform="matrix(0.8702 -0.4927 0.4927 0.8702 -167.077 106.8155)" class="st2" cx="119.2" cy="370.5" rx="8.6" ry="8.6"/>
		
			<ellipse transform="matrix(0.7071 -0.7071 0.7071 0.7071 -219.8758 210.1831)" class="st4" cx="143.8" cy="370.5" rx="8.6" ry="8.6"/>
		
			<ellipse transform="matrix(0.2298 -0.9732 0.9732 0.2298 -230.9127 449.2393)" class="st2" cx="168.4" cy="370.5" rx="8.6" ry="8.6"/>
	</g>
</g>
<g id="Character">
	<g>
		<g>
			<path class="st4" d="M406.3,122.1c0,0-8.7-10.1-20.7-12.4c-12-2.3-27.1,10-29.5,14.9c-2.3,4.9-6.7,44.7-6.7,44.7h68.3
				c0,0-6.6-34.5-7.7-38C408.9,127.8,406.3,122.1,406.3,122.1z"/>
			<g>
				<path class="st5" d="M364.9,169.9c0,0-2.3,57.2-4.1,65.1c-1.8,7.9-10.4,26.8-13.8,38.1c-3.4,11.3-4.1,17.5-4.1,17.5h74
					c0,0-11.8-48-12.9-54.9c-1.1-6.9,0-62.3,0-62.3V169L364.9,169.9z"/>
				<path class="st4" d="M410.1,262.5h-59.4c-1.5,3.9-2.8,7.6-3.7,10.7c-3.4,11.3-4.1,17.5-4.1,17.5h74
					C416.9,290.6,413.5,276.5,410.1,262.5z"/>
			</g>
			<g>
				<path class="st1" d="M401,165.8c0,0-1.8,75.5-1.2,81.4c0.5,5.8,21.4,66.4,21.9,69c0.5,2.6,3.5,9.9,3.5,9.9h14.3
					c0,0,2.1-21.4-2.5-38.5c-4.6-17.1-14.3-33.7-16.4-38.5s4.1-45.2,4.1-45.2s24,28.8,25.4,30c1.4,1.2,31.2,4.9,30.2,3.2
					c-1.1-1.8-15.9-21.2-22.8-30c-6.9-8.8-18.2-27.7-22.9-32.8c-4.8-5.1-14.5-9.9-19.2-9.2c-4.8,0.7-7.8,1.2-7.8,1.2L401,165.8z"/>
				<path class="st2" d="M416.2,185.8c0,0,2.3,10.9,6.4,15.2"/>
				<path class="st2" d="M416,195.7c0,0,3.4,6.5,6.7,8.8"/>
				<path class="st2" d="M409,200.4c0,0,6.5,6.7,12.2,9"/>
				<path class="st2" d="M457.9,224.5c0,0,7.9-1.4,11.1,0.9"/>
				<path class="st2" d="M461.2,222c0,0-3.9-0.5-7.4,2.5"/>
			</g>
			<g>
				<path class="st1" d="M366.8,173.1c0,0,0.9,29.8-0.4,46.8c-1.2,16.9-2.5,18-3.4,25.8c-0.9,7.8-10.6,30.4-17.1,39.9
					c-6.5,9.5-11.1,23.7-12.9,30.7c-1.8,7.1-1.9,9.9-1.9,9.9h-11.8c0,0-3.9-8.3,3.9-34.8c7.8-26.5,19.1-37.1,19.9-45.4
					c0.9-8.3-3.7-40.9-3.7-40.9l-20.4,24.5l-22.6,4.1c0,0,4.5-11,8.9-20c4.4-9,13.6-21.1,16.9-28.9c4.8-11.4,15.7-19.1,19.9-19.6
					c4.2-0.5,13.9-0.9,13.9-0.9l8.3-1.4L366.8,173.1z"/>
				<line class="st2" x1="339.4" y1="205" x2="335.9" y2="179.8"/>
				<line class="st2" x1="329.7" y1="183.9" x2="337.1" y2="200.4"/>
				<line class="st2" x1="329.7" y1="195.3" x2="334.1" y2="201.2"/>
				<path class="st2" d="M308.9,221.1c0,0,7.1-1.1,11.8,1.8"/>
				<path class="st2" d="M306.1,219.7c0,0,5.6-1.4,7.8-1.1"/>
			</g>
			<ellipse class="st5" cx="383.9" cy="181" rx="15.1" ry="21.7"/>
			<path class="st4" d="M345.3,164.8c0,0,10.2,13.8,20,21.1c9.8,7.3,18.7-1.1,18.7-1.1l-17.7-21.7L345.3,164.8z"/>
			<g>
				<path class="st5" d="M379.6,132c0,0-18.2,8.5-18.4,12c-0.2,3.5,2.5,23.9,3.7,27.4c1.2,3.5,14.3,16.8,16.8,17.1
					c2.5,0.2,5.5-0.2,6.5-1.2c1-1,13.8-14.6,14.1-16.6c0.2-2,1-27.9,1-27.9l-20.9-11l-1-16.7l-2,0.5L379.6,132z"/>
				<path class="st2" d="M378.8,169.9c0,0-0.5,1.5,0.3,2.2c0.8,0.7,3.4,2.2,5,1.3c1.7-0.8,2.9-2,2.7-3.2"/>
				<path class="st2" d="M377.3,176.6c0,0,2.5,2,5.9,1.7c3.4-0.3,5.9-2.4,5.9-2.4"/>
				<path class="st2" d="M368.9,161.1c0,0,3.9,3.4,8.1,1.2"/>
				<path class="st2" d="M388.9,162.1c0,0,5,2.2,8.2-0.8"/>
				<path class="st2" d="M375.9,154.1c0,0-5.9-2.5-10.1,1.2"/>
				<path class="st2" d="M388,153.7c0,0,6.9-2.5,10.1,1.2"/>
			</g>
		</g>
		<g>
			<g>
				<path class="st5" d="M370.9,211.5l9.2,15.5l2.1,0.2l-9.4-16.7c-0.3-0.6-1.1-0.8-1.6-0.3l0,0
					C370.8,210.6,370.7,211.1,370.9,211.5z"/>
				<g>
					<path class="st5" d="M367.9,228.1c0,0,2.7-3.3,5.7-3.3c3,0,8.9,0.7,10.1,1.1c1.1,0.4,3.3,5.7,3.6,6.2c0.3,0.5,2.6,2.1,2.7,4
						c0.1,1.9-0.5,3.2-0.5,3.2s-0.3,3.8-0.7,4.5c-0.4,0.7-0.4,0.7-0.4,0.7s-1,1.8-1.5,1.8c-0.5,0-20.8,0.2-20.8,0.2
						S364.6,234.5,367.9,228.1z"/>
					<path class="st2" d="M378.3,230.3c0,0,3.5-0.3,4.4,0.1c1,0.4,4.5,1.7,4.5,1.7"/>
					<line class="st2" x1="381.2" y1="237.2" x2="389.5" y2="239.3"/>
					<line class="st2" x1="380.5" y1="242.4" x2="388.4" y2="244.4"/>
				</g>
			</g>
			<path class="st1" d="M310.5,223.9c0,0,7-1.9,11.2-0.4c4.2,1.5,19.5,4.3,29.9,6.8c10.4,2.5,16.2-2.2,16.2-2.2s-2.6,4.6-2.3,10.9
				c0.3,6.3,0.5,7.4,0.5,7.4s-21.7,0.6-28.2,0.9s-41.6,0.3-42.8-3.8s1.1-9.9,3.2-13.2"/>
		</g>
		<g>
			<path class="st1" d="M470.9,229.3c0,0-1.6-1.9-8.9-1.7c-7.3,0.2-23.9,9-28.7,10.5c-4.8,1.4-14.9,0.6-14.9,0.6l9.2,8.7h52.2
				c0,0,5.4-2.5,4.4-7.5c-1-4.9-11.1-9.8-11.1-9.8"/>
			<g>
				<path class="st5" d="M396.2,246.9c0,0,9.4-6.5,11.6-7.6c2.2-1.1,9.7-0.8,10.6-0.6c1,0.2,7.6,4.3,8.9,5.7
					c1.3,1.4,2.4,3.2,2.4,3.2L396.2,246.9z"/>
				<path class="st2" d="M401.8,246.4c0,0,7.6-4.8,10.5-5.9"/>
				<path class="st2" d="M409.1,246.9c0,0,7.1-4.6,8.9-5.9"/>
				<path class="st2" d="M416.8,247.2c0,0,3.5-2.2,6-3.2"/>
			</g>
		</g>
		<path class="st5" d="M324,456.2h-1c-1,0-1.7-0.8-1.7-1.7v-122h4.4v122C325.7,455.4,324.9,456.2,324,456.2z"/>
		<path class="st5" d="M439.3,456.2h-1c-1,0-1.7-0.8-1.7-1.7v-122h4.4v122C441,455.4,440.2,456.2,439.3,456.2z"/>
		<path class="st6" d="M444.3,335.1H318.2c-1.7,0-3.1-1.4-3.1-3.1v-9.2c0-1.7,1.4-3.1,3.1-3.1h126.1c1.7,0,3.1,1.4,3.1,3.1v9.2
			C447.5,333.7,446.1,335.1,444.3,335.1z"/>
		<g>
			<path class="st4" d="M382,262.5c0,0-18.7,4.9-32.5,14.6c-13.8,9.7-19.9,20.7-17.7,34.4c2.1,13.2,18.4,18.7,24.3,17.7
				c5.9-1,16.2,0,24.6-7.9c8.4-7.9,23.8-45.7,23.8-45.7S393.8,260.2,382,262.5z"/>
			<g>
				<g>
					<path class="st5" d="M363.6,388.4c0,0,1,34.7,0.8,37c-0.3,2.3-11.5,17.4-14.3,21.5c-2.8,4.1-4.6,10-2.8,14.6
						c1.8,4.6,8.7,4.9,13,2.6c4.3-2.3,14.3-26.1,14.8-29.6c0.5-3.6,1.3-13,1.3-13l6.6-30.4L363.6,388.4z"/>
					<path class="st1" d="M375.5,431.3c-2.7,6.3-8,15.6-8,15.6s-2.6-2.6-6.1-4.1c-3.6-1.5-5.9-1.3-5.9-1.3l1.4-4.2
						c-2.8,4-5.6,7.8-6.8,9.5c-2.8,4.1-4.6,10-2.8,14.6c1.8,4.6,8.7,4.9,13,2.6c4.3-2.3,14.3-26.1,14.8-29.6
						C375.3,433.6,375.4,432.5,375.5,431.3z"/>
				</g>
				<path class="st4" d="M387.9,296.2c0,0-13-1-17.6,4.6c-4.6,5.6-7.2,22.5-7.4,33.5c-0.3,11,0.5,49.8,0.5,49.8l19.7,3.1
					c0,0,15.1-52.9,16.3-62.6C400.7,314.9,396.9,296,387.9,296.2z"/>
				<path class="st7" d="M361.5,380.9l0.4,9.9c0,0,6.1,4.6,10.4,5.3c8.6,1.3,13.1-3.5,13.1-3.5l1.4-8.2c0.2-1.1-0.7-2-1.8-1.8
					c-2.5,0.5-6.9,1-11.4,0.4c-3.6-0.5-7.4-2.2-9.9-3.5C362.6,378.9,361.4,379.7,361.5,380.9z"/>
			</g>
			<g>
				<g>
					<path class="st5" d="M411.9,340.2c0,0,26.3,38.1,28.1,42.7c1.8,4.6,5.9,19.9,8.4,27.8c2.6,7.9,9.7,12,12.8,12.3
						c3.1,0.3,7.4-8.2,6.9-14.3c-0.5-6.1-4.6-15.8-8.4-22.2c-3.8-6.4-5.9-11.5-7.7-14.1c-1.8-2.6-6.9-10.7-10.7-16.6
						S428,327.6,428,327.6L411.9,340.2z"/>
					<path class="st1" d="M450.5,396.9c-5.4,0-7.7-6.9-7.7-6.9l-0.4,0.5c1.9,6.5,4.3,15,6,20.2c2.6,7.9,9.7,12,12.8,12.3
						c3.1,0.3,7.4-8.2,6.9-14.3c-0.5-6.1-4.6-15.8-8.4-22.2c-3.8-6.4-5.9-11.5-7.7-14.1c0,0,7.2,12.5,7.2,17.1
						C459.2,394.1,455.9,396.9,450.5,396.9z"/>
				</g>
				<g>
					<path class="st4" d="M379.2,281.2c0,0,10,26.8,16.9,38.3c6.9,11.5,12.3,17.9,12.3,17.9l19.7-13.3c0,0-12-46.5-21.2-56.2
						c-9.2-9.7-19.2-8.2-24.8-5.4l-6.9,4.9"/>
					<path class="st7" d="M405.6,338.7l7,8.7c1.1,1.3,3,1.6,4.4,0.6l15.9-8.2c1.2-0.8,1.6-2.3,1.2-3.6l-3.2-10.5
						c-0.4-1.2-1.7-1.8-2.9-1.3c-4.8,2-16.3,7-21.9,11.2C405,336.3,404.9,337.7,405.6,338.7z"/>
				</g>
			</g>
		</g>
		<g>
			<rect x="282.5" y="253.9" class="st6" width="197.3" height="25.9"/>
			<path class="st5" d="M282.5,456.2h-1.3c-1.3,0-2.3-1-2.3-2.3V251.1h5.9v202.7C284.8,455.1,283.7,456.2,282.5,456.2z"/>
			<path class="st5" d="M481.1,456.2h-1.3c-1.3,0-2.3-1-2.3-2.3V251.1h5.9v202.7C483.4,455.1,482.4,456.2,481.1,456.2z"/>
		</g>
		<rect x="272.5" y="246.3" class="st5" width="218" height="9.4"/>
	</g>
</g>
</svg>
